<?xml version="1.0" encoding="utf-8"?>
<!-- Generator: Adobe Illustrator 25.4.1, SVG Export Plug-In . SVG Version: 6.00 Build 0)  -->
<svg version="1.1" id="Layer_1" xmlns="http://www.w3.org/2000/svg" xmlns:xlink="http://www.w3.org/1999/xlink" x="0px" y="0px"
	 viewBox="0 0 189.3 224" style="enable-background:new 0 0 189.3 224;" xml:space="preserve">
<style type="text/css">
	.st0{fill:#FF6384;}
	.st1{fill:#36A2EB;}
	.st2{fill:#FFCE56;}
	.st3{opacity:0.8;fill:#FE6184;enable-background:new    ;}
	.st4{fill:#E7E9ED;}
</style>
<g>
	<g>
		<path class="st0" d="M32.8,180.9c0.4,0.6,0.7,1.3,0.7,2c0,1.7-1.5,3.1-3.2,3.1c-0.8,0-1.7-0.3-2.4-1.1c-2.1-2.4-5.2-3.9-8.3-3.9
			c-7.3,0-12.8,5.6-12.8,13.4c0,7.7,5.4,13.4,12.8,13.4c3.1,0,6.2-1.3,8.3-3.8c0.7-0.7,1.6-1.1,2.5-1.1c1.7,0,3.1,1.4,3.1,3
			c0,0.7-0.2,1.4-0.7,2c-2.9,3.2-7.1,5.8-13.2,5.8c-11,0-19.6-7.8-19.6-19.3S8.6,175,19.6,175C25.7,175,29.9,177.6,32.8,180.9z"/>
		<path class="st0" d="M61,213.3c-1.7,0-3-1.3-3-3V196c0-4.1-2.2-5.4-5.5-5.4c-2.9,0-5.5,1.7-6.8,3.6v16.2c0,1.6-1.3,3-3,3
			s-3-1.3-3-3v-32.1c0-1.6,1.3-2.9,3.1-2.9c1.6,0,2.9,1.3,2.9,2.9v11.4c1.8-2.1,5.3-4.4,9.6-4.4c5.8,0,8.7,3.1,8.7,8.6v16.5
			C64.1,212,62.7,213.3,61,213.3z"/>
		<path class="st0" d="M91.1,213.3h-0.3c-0.8,0-2.7-0.7-2.7-2.7v-0.5c-2,2.3-5.2,3.6-8.7,3.6c-4.4,0-9.5-3-9.5-9
			c0-6.2,5-8.8,9.5-8.8c3.6,0,6.8,1.2,8.7,3.5v-4.1c0-3.1-2.6-5-6.3-5c-2.4,0-4.5,0.6-6.4,2.1c-0.3,0.2-0.8,0.4-1.2,0.4
			c-1.1,0-2.4-0.9-2.4-2.4c0-0.4,0.2-1,0.4-1.3c2.1-2.7,7.1-3.8,10.5-3.8c6,0,11.3,2.5,11.3,9.8v15.3
			C94.1,212,92.7,213.3,91.1,213.3z M88.1,202.8c-1.3-1.8-3.8-2.7-6.4-2.7c-3.2,0-5.7,1.8-5.7,4.8c0,2.9,2.5,4.7,5.7,4.7
			c2.6,0,5-0.9,6.4-2.7V202.8z"/>
		<path class="st0" d="M112.5,191.3c-2.4,0.2-4.7,1.2-6.2,3.3v15.7c0,1.6-1.3,3-3,3h-0.1c-1.6,0-2.9-1.3-2.9-3v-21.8
			c0-1.6,1.3-2.9,3.1-2.9c1.6,0,2.9,1.3,2.9,2.9v1.4c1.5-2,3.6-4.3,6.4-4.3c1.6,0,2.6,1.1,2.6,2.6
			C115.4,190,114.2,191.1,112.5,191.3z"/>
		<path class="st0" d="M129.4,213.7c-4.6,0-7-2.5-7-7v-15.5h-2.2c-1.4,0-2.6-1.2-2.6-2.7c0-1.4,1.2-2.6,2.6-2.6h2.2v-4.8
			c0-1.6,1.3-3,3.1-3c1.6,0,2.9,1.3,2.9,3v4.8h3.3c1.4,0,2.5,1.2,2.5,2.7c0,1.4-1.1,2.6-2.5,2.6h-3.3v13.9c0,2.1,1.2,3.2,2.6,3.2
			c0.4,0,0.9-0.2,1.2-0.2c1.6,0,2.6,1.1,2.6,2.6C134.8,212.6,133.2,213.7,129.4,213.7z"/>
		<path class="st0" d="M142.2,213.6c-2.2,0-4-1.8-4-4c0-2.2,1.8-4,4-4c2.2,0,4,1.8,4,4C146.2,211.8,144.4,213.6,142.2,213.6z"/>
		<path class="st0" d="M152.1,224c-3.5,0-6.2-0.9-6.2-3.1c0-1.3,1.1-2.4,2.4-2.4c0.8,0,1.5,0.6,2.8,0.6c2.3,0,4-1.4,4-4.6v-25.9
			c0-1.6,1.3-2.9,3.1-2.9c1.6,0,2.9,1.3,2.9,2.9v25.9C161.2,220.3,158.1,224,152.1,224z M161.8,179c0,2.1-1.7,3.7-3.7,3.7
			s-3.7-1.6-3.7-3.7c0-2,1.7-3.6,3.7-3.6S161.8,176.9,161.8,179z"/>
		<path class="st0" d="M178,213.7c-3.6,0-8.5-1.1-10.6-3.5c-0.3-0.4-0.6-0.9-0.6-1.5c0-1.4,1.2-2.5,2.6-2.5c0.4,0,1,0.1,1.3,0.4
			c2.1,1.4,4.9,2.4,7.4,2.4c3.5,0,5.3-1.5,5.3-3.6c0-5.3-16.4-1.5-16.4-11.9c0-4.4,3.9-8.2,10.8-8.2c3.6,0,7.7,1.1,9.6,3.2
			c0.3,0.4,0.5,0.8,0.5,1.3c0,1.3-1.1,2.3-2.4,2.3c-0.4,0-0.8-0.1-1.2-0.3c-1.7-1.2-4-1.9-6.4-1.9c-3,0-4.9,1.5-4.9,3.3
			c0,4.8,16.3,1.2,16.3,11.9C189.3,210,185.3,213.7,178,213.7z"/>
	</g>
</g>
<path class="st1" d="M158.3,80.6C136,81,140.6,95.2,124.9,98.7c-16,3.6-18.5-39.1-34.6-39.1c-16,0-19.6,41.5-39.6,70l-0.6,0.8
	l43,24.8l65.2-37.6L158.3,80.6L158.3,80.6z"/>
<path class="st2" d="M158.3,79.3c-7.5-9.6-12.6-20.7-23.5-20.7c-19.3,0-14.2,31.5-35.6,31.5c-21.4,0-23.6-33.9-47.8-2
	c-7.7,10.2-13.9,21.5-18.8,32.2l60.5,34.9l65.2-37.6L158.3,79.3L158.3,79.3z"/>
<path class="st3" d="M27.9,92.3C35.2,72,38.4,55.6,52.4,55.6c21.4,0,26.5,60,44.8,53.9c18.3-6.1,16.3-38.7,44.8-38.7
	c5.4,0,11,3.3,16.4,8.7v38.1l-65.2,37.6l-65.2-37.6L27.9,92.3L27.9,92.3z"/>
<path class="st4" d="M93.1,160l-69.3-40V40L93.1,0l69.3,40v80L93.1,160z M31.9,115.3l61.2,35.3l61.2-35.3V44.7L93.1,9.4L31.9,44.7
	C31.9,44.7,31.9,115.3,31.9,115.3z"/>
</svg>
